<?xml version="1.0" encoding="utf-8"?>
<!-- Generator: Adobe Illustrator 21.1.0, SVG Export Plug-In . SVG Version: 6.00 Build 0)  -->
<svg version="1.1" id="Layer_1" xmlns="http://www.w3.org/2000/svg" xmlns:xlink="http://www.w3.org/1999/xlink" x="0px" y="0px"
	 viewBox="0 0 1088.1 181" style="enable-background:new 0 0 1088.1 181;" xml:space="preserve">
<title>1Artboard 3 copy 3</title>
<g id="Layer_2">
	<path d="M898.9,45.4c-29.1,0-45.4,20.6-50.7,33.2V48.4H781V177h67.2v-75.7c0-11.2,7.3-16.8,13.2-16.8c9.5,0,10.4,9.5,10.4,21V177
		h67.2V93.8C939.1,72.1,930.7,45.4,898.9,45.4z"/>
	<polygon points="99,51.7 0,0 0,177 76.5,177 76.5,128.2 175.5,180 175.5,3 99,3 	"/>
	<path d="M262.2,45.4c-44.2,0-80.1,29.3-80.1,66.8S218,179,262.2,179s80.1-29.4,80.1-66.8S306.5,45.4,262.2,45.4z M262.2,133.4
		c-7.1,0-12.9-9.5-12.9-21.2S255.1,91,262.2,91s12.9,9.5,12.9,21.2S269.4,133.4,262.2,133.4L262.2,133.4z"/>
	<path d="M474.1,3H368.6v174h76.5v-49.6h29c34.4,0,62.2-27.9,62.2-62.2S508.5,3,474.1,3z M456.2,88c-7.1,0-12.9-9.5-12.9-21.2
		s5.8-21.2,12.9-21.2s12.9,9.5,12.9,21.2S463.3,88,456.2,88z"/>
	<rect x="541.7" y="3" width="67.2" height="174"/>
	<path d="M698.2,45.4c-46.2,0-65.9,12.6-79.3,25.7v47c12.4-13.1,24.7-23,49.8-23c13.3-0.2,25.7,6.8,32.4,18.3
		c-8.5-6.8-19-9.6-33.1-9.6c-24.7,0-49,17.7-49,44.1c0,22,18.5,32,41.2,32c19.5,0,34.2-4.5,42.7-13.5V177h67.2v-64.3
		C769.9,91,769.1,45.4,698.2,45.4z M693.5,161.9c-6.5,0-11.8-8.7-11.8-19.5S687,123,693.5,123s11.8,8.7,11.8,19.5
		S700,161.9,693.5,161.9L693.5,161.9z"/>
	<path d="M1050.3,111.1c-10.8-1.3-32.1-3.2-40.8-4c-8.5-0.8-9.9-9.4,4.1-9.4s43.9,2.1,65.1,8.6l-1.3-46.5
		c-21.3-9.8-53-14.5-76.3-14.5c-33.4,0-55.2,17.4-55.2,39.6s12.8,28.6,26.3,30.7c15.8,2.4,35.3,4.3,41.5,4.6c11.2,0.7,13,8.2,2,8.6
		c-12,0.5-42.9-0.9-64.9-8v51.5c18,5.5,47.7,8.6,75,8.6c45.7,0,62.3-16.8,62.3-35.9C1088.1,124.2,1075.4,114.2,1050.3,111.1z"/>
</g>
</svg>
